<?xml version="1.0" standalone="no"?>
<!DOCTYPE svg PUBLIC "-//W3C//DTD SVG 20010904//EN"
 "http://www.w3.org/TR/2001/REC-SVG-20010904/DTD/svg10.dtd">
<svg version="1.0" xmlns="http://www.w3.org/2000/svg"
 width="300.000000pt" height="248.000000pt" viewBox="0 0 300.000000 248.000000"
 preserveAspectRatio="xMidYMid meet">
<metadata>
Created by potrace 1.10, written by Peter Selinger 2001-2011
</metadata>
<g transform="translate(0.000000,248.000000) scale(0.100000,-0.100000)"
fill="#000000" stroke="none">
<path d="M1973 2306 c-49 -16 -124 -61 -208 -124 -126 -96 -324 -257 -317
-260 4 -1 121 56 261 128 140 71 270 135 289 141 19 6 61 9 95 7 53 -4 63 -8
93 -40 46 -51 50 -88 24 -210 -12 -57 -24 -112 -26 -123 -5 -21 69 -115 81
-103 3 3 20 63 36 133 54 235 34 339 -83 419 -51 35 -64 39 -130 42 -44 2 -90
-2 -115 -10z m205 -40 c49 -25 100 -82 111 -123 21 -74 3 -242 -36 -341 -8
-21 -10 -22 -22 -8 -14 17 -12 40 9 151 22 110 22 129 2 176 -12 27 -36 59
-58 75 -34 27 -45 29 -118 29 -80 -1 -83 -2 -213 -68 -145 -73 -181 -85 -112
-35 24 18 46 35 49 39 9 11 106 76 141 95 70 37 186 41 247 10z"/>
<path d="M783 2112 c-71 -25 -114 -61 -142 -118 -54 -107 -39 -220 48 -351 42
-65 229 -309 307 -402 2 -2 6 -2 9 0 2 3 -54 119 -125 259 -71 140 -134 268
-140 284 -15 44 -12 134 6 164 43 74 122 87 274 49 52 -14 100 -22 106 -18 32
18 85 74 78 81 -14 13 -223 58 -299 64 -54 5 -82 2 -122 -12z m265 -43 c62
-14 92 -25 92 -35 0 -23 -44 -26 -116 -8 -38 10 -103 18 -144 19 -86 0 -110
-13 -155 -80 -24 -36 -26 -47 -22 -115 3 -66 10 -87 54 -175 28 -55 58 -118
67 -140 l16 -40 -31 35 c-51 58 -136 192 -153 243 -43 129 16 271 126 305 74
23 128 22 266 -9z"/>
<path d="M1930 2029 c0 -3 61 -126 136 -274 127 -248 137 -273 142 -335 11
-155 -74 -199 -293 -149 l-93 22 -46 -39 c-25 -21 -43 -41 -38 -45 13 -13 237
-60 307 -66 140 -10 245 61 280 191 15 54 15 71 5 122 -17 80 -44 131 -139
258 -116 153 -260 328 -261 315z m220 -307 c19 -25 42 -55 50 -64 8 -10 32
-46 52 -79 123 -202 28 -410 -186 -409 -77 1 -251 42 -251 60 0 22 36 24 124
6 117 -24 169 -21 219 11 59 38 82 89 78 170 -3 53 -14 85 -70 202 -36 76 -66
141 -66 145 0 16 18 1 50 -42z"/>
<path d="M1028 1903 l-28 -4 0 -270 c0 -148 2 -269 3 -269 2 0 19 7 37 16 l32
17 -4 178 c-2 99 -3 179 -2 179 0 0 54 -88 120 -195 l119 -195 38 0 37 0 0
240 0 240 171 0 170 0 -3 -240 c-2 -132 -2 -240 -1 -240 1 0 18 8 38 17 l35
17 0 224 0 224 75 -4 c41 -2 75 1 75 5 0 5 -9 21 -19 35 l-19 27 -298 0 -299
0 0 -194 c0 -139 3 -195 12 -198 6 -2 13 4 16 14 4 13 5 12 7 -7 6 -65 2 -120
-9 -120 -10 0 -61 75 -61 89 0 6 7 8 16 4 12 -4 9 7 -11 48 -53 104 -206 369
-213 368 -4 -1 -19 -4 -34 -6z m82 -130 c22 -42 39 -77 37 -79 -2 -2 -18 12
-36 31 -34 37 -46 42 -56 25 -20 -32 -34 42 -19 98 9 32 25 16 74 -75z m680
88 c0 -5 -6 -11 -12 -13 -8 -3 -15 -34 -19 -84 l-6 -79 -1 69 c-2 56 -6 74
-24 93 l-21 23 41 0 c23 0 42 -4 42 -9z"/>
<path d="M1418 1785 c-3 -13 -3 -27 0 -30 3 -3 34 -5 68 -5 63 0 94 -15 94
-44 0 -23 -34 -44 -75 -48 -35 -3 -40 -6 -43 -30 -3 -23 1 -27 37 -33 61 -10
93 -39 89 -83 -4 -48 -39 -72 -114 -79 -57 -5 -59 -7 -58 -32 1 -24 4 -26 50
-25 76 1 117 12 153 42 53 44 60 129 15 177 -20 22 -30 25 -54 20 -23 -5 -30
-3 -30 9 0 9 5 16 10 16 6 0 10 -4 10 -9 0 -15 59 18 70 39 13 24 13 66 -1 92
-16 30 -71 48 -148 48 -65 0 -69 -1 -73 -25z m214 -270 c-2 -64 -18 -68 -17
-5 0 35 4 55 9 50 5 -5 9 -25 8 -45z"/>
<path d="M1400 1630 c0 -25 4 -30 25 -30 21 0 25 5 25 30 0 25 -4 30 -25 30
-21 0 -25 -5 -25 -30z"/>
<path d="M642 1417 c-49 -206 -39 -312 38 -393 88 -94 226 -106 360 -32 89 50
467 344 456 355 -3 3 -98 -43 -213 -102 -114 -59 -233 -121 -263 -136 -109
-56 -207 -57 -263 -1 -49 50 -52 110 -11 285 l16 67 -38 43 c-21 23 -41 43
-44 45 -3 1 -21 -58 -38 -131z m75 37 c3 -8 -2 -54 -12 -102 -36 -183 -8 -269
101 -307 70 -24 127 -10 284 68 176 87 164 82 155 67 -10 -16 -181 -140 -231
-167 -114 -62 -270 -35 -331 56 -40 60 -56 167 -34 237 5 16 15 56 22 89 7 33
14 63 16 68 7 12 23 8 30 -9z"/>
<path d="M277 678 l1 -143 39 0 38 0 -2 80 c-2 77 -1 79 15 59 117 -147 114
-144 148 -144 l34 0 0 145 0 145 -40 0 -39 0 -3 -75 -3 -74 -59 74 c-53 69
-61 75 -95 75 l-36 0 2 -142z m94 60 c41 -44 50 -65 24 -54 -8 3 -22 9 -30 12
-9 4 -19 -3 -26 -20 -20 -43 -29 -30 -29 39 0 40 4 65 11 65 6 0 28 -19 50
-42z m148 -100 c-1 -74 -19 -76 -74 -11 -37 44 -38 46 -13 40 36 -9 55 0 63
31 10 42 25 6 24 -60z"/>
<path d="M600 674 l0 -145 42 3 42 3 0 142 1 143 -42 0 -43 0 0 -146z m50 -1
c0 -61 -4 -92 -9 -83 -5 8 -8 38 -7 65 2 28 4 65 4 83 1 17 4 32 7 32 3 0 5
-44 5 -97z"/>
<path d="M740 675 l0 -145 40 0 40 0 0 75 c0 41 -4 75 -9 75 -11 0 -21 -25
-21 -56 0 -13 -4 -24 -10 -24 -15 0 -13 167 2 176 7 4 33 -17 68 -56 81 -91
97 -73 21 23 -55 70 -65 77 -96 77 l-35 0 0 -145z"/>
<path d="M931 763 c0 -32 4 -67 8 -78 8 -20 8 -20 15 2 4 12 9 31 11 44 10 50
15 27 15 -64 0 -58 -4 -97 -10 -97 -11 0 -31 19 -70 66 -14 17 -38 39 -55 50
l-30 19 20 -32 c11 -18 42 -57 68 -88 38 -43 54 -55 78 -55 l29 0 0 145 0 145
-40 0 -40 0 1 -57z"/>
<path d="M1060 786 l0 -33 50 5 50 5 0 -71 c0 -51 -4 -75 -16 -86 -19 -20 -24
-20 -52 0 -21 15 -24 14 -42 -8 -25 -30 -25 -31 9 -51 58 -34 145 -14 169 38
7 15 12 71 12 130 l0 105 -90 0 -90 0 0 -34z m145 -93 c0 -74 -3 -96 -17 -110
-10 -9 -20 -14 -23 -11 -3 3 1 13 10 21 21 22 21 149 0 167 -22 18 -18 32 8
28 21 -3 22 -7 22 -95z"/>
<path d="M1315 683 c-33 -75 -61 -140 -63 -145 -2 -4 15 -8 38 -8 37 0 43 3
53 30 11 29 14 30 72 30 58 0 61 -1 72 -30 10 -27 16 -30 52 -30 23 0 41 2 41
4 0 4 -88 210 -110 259 -11 23 -19 27 -54 27 l-41 0 -60 -137z m162 16 c23
-46 42 -92 42 -102 1 -16 -2 -15 -31 5 -18 13 -35 24 -37 25 -2 1 2 9 8 17 29
35 -30 129 -62 97 -17 -17 -27 -13 -20 7 7 21 34 43 48 39 5 -2 29 -41 52 -88z
m-27 -45 c0 -2 -16 -4 -36 -4 -30 0 -35 3 -29 18 4 9 12 30 17 45 l11 29 18
-42 c11 -23 19 -44 19 -46z m-80 -18 c0 -7 -13 -22 -30 -34 -35 -26 -35 -25
-14 28 13 33 19 38 30 29 8 -6 14 -17 14 -23z"/>
<path d="M1600 676 l0 -146 78 0 c101 1 152 13 180 45 29 34 28 51 -5 84 -27
25 -27 28 -10 44 22 22 22 59 -2 88 -18 22 -28 24 -130 27 l-111 4 0 -146z
m70 95 c-14 -28 -12 -56 5 -71 13 -11 13 -16 -2 -41 -15 -24 -15 -34 -5 -61
13 -36 8 -47 -16 -32 -13 9 -18 29 -20 95 -4 104 2 129 29 129 16 0 18 -3 9
-19z m155 -11 c4 -6 1 -26 -5 -45 -9 -27 -8 -40 5 -65 17 -34 12 -70 -10 -70
-12 0 -12 6 -4 27 9 24 7 31 -15 50 -25 21 -27 53 -4 53 10 0 7 30 -7 64 -7
16 -6 17 13 7 11 -6 24 -16 27 -21z m-50 -25 c0 -17 -8 -20 -47 -23 -46 -3
-48 -2 -48 23 0 25 2 26 48 23 39 -3 47 -6 47 -23z m13 -112 c4 -24 3 -24 -68
-27 -31 -1 -35 2 -38 27 -3 28 -3 28 50 25 46 -3 53 -6 56 -25z"/>
<path d="M1888 788 c89 -146 92 -152 92 -205 l0 -53 40 0 40 0 0 52 c0 43 7
64 40 119 22 37 40 72 40 78 0 5 5 13 11 17 7 4 9 -2 7 -17 -3 -22 0 -24 40
-21 l42 4 0 -116 0 -116 40 0 40 0 0 116 0 116 45 -6 45 -7 0 36 0 35 -162 -2
-162 -3 -32 -53 -32 -53 -32 55 c-31 55 -32 56 -77 56 l-45 0 20 -32z m433
-15 c-17 -15 -21 -31 -24 -106 -2 -48 -7 -88 -13 -90 -5 -1 -11 37 -14 85 -4
66 -9 91 -24 107 l-19 21 58 0 c56 0 57 0 36 -17z m-301 -73 c6 0 21 5 32 11
19 10 20 9 13 -7 -23 -54 -34 -91 -35 -111 0 -34 -20 -28 -20 6 0 16 -16 60
-35 97 -19 37 -35 69 -35 72 0 3 15 -11 34 -31 18 -20 39 -37 46 -37z"/>
<path d="M2435 677 l0 -142 118 -3 117 -3 0 36 0 35 -74 0 c-71 0 -74 1 -78
25 -5 25 -4 25 62 25 l67 0 -5 30 c-4 30 -5 30 -66 30 -59 0 -61 1 -61 26 l0
27 73 -7 72 -6 0 35 0 35 -112 0 -113 0 0 -143z m83 96 c-24 -28 -28 -51 -12
-63 16 -14 19 -46 4 -55 -19 -12 -11 -62 13 -79 22 -16 21 -16 -18 -13 l-40 2
-3 113 -3 112 37 0 c34 0 36 -1 22 -17z"/>
<path d="M867 353 c-15 -15 -5 -23 28 -23 l35 0 0 -75 c0 -60 3 -75 15 -75 12
0 15 15 15 75 l0 75 30 0 c20 0 30 5 30 15 0 12 -15 15 -73 15 -41 0 -77 -3
-80 -7z"/>
<path d="M1220 270 l0 -90 65 0 c51 0 65 3 65 15 0 11 -12 15 -50 15 -46 0
-50 2 -50 24 0 22 3 23 45 18 41 -4 45 -3 45 17 0 19 -4 20 -45 14 -44 -6 -45
-5 -45 21 0 25 3 26 50 26 38 0 50 4 50 15 0 12 -14 15 -65 15 l-65 0 0 -90z"/>
<path d="M1581 334 c-41 -34 -44 -92 -6 -129 32 -33 96 -37 125 -9 20 20 -2
43 -24 25 -25 -21 -69 -9 -84 22 -12 24 -11 31 2 52 20 30 49 39 77 25 31 -17
52 5 25 26 -31 22 -81 17 -115 -12z"/>
<path d="M1920 271 c0 -86 1 -91 21 -91 19 0 21 4 16 35 l-6 35 45 0 c44 0 44
0 44 -35 0 -28 4 -35 20 -35 19 0 20 7 20 90 0 83 -1 90 -20 90 -17 0 -20 -7
-20 -39 l0 -39 -42 1 c-42 2 -43 3 -43 37 0 25 -5 36 -17 38 -16 3 -18 -6 -18
-87z"/>
</g>
</svg>
